<?xml version="1.0" encoding="utf-8"?>
<svg id="master-artboard" viewBox="0 0 612 792" version="1.1" xmlns="http://www.w3.org/2000/svg" x="0px" y="0px" style="enable-background:new 0 0 612 792;" width="612px" height="792px">


<g transform="matrix(1, 0, 0, 1, 0, 0)">
		<path d="M 0 0 H 612 V 792 H 0 V 0 Z" class="st1" style="fill: rgb(226, 180, 121);"/>
		<g>
			<path class="st2" d="M568.5,125c8.4-4.7,13.6-10.8,13.6-17.6c0-14.5-23.5-26.2-52.5-26.2c-29,0-52.5,11.8-52.5,26.2&#10;&#9;&#9;&#9;&#9;c0,7.3,6,13.9,15.7,18.7c-21-1.3-43.9-4.1-68.2-8.9c-120-24-180-48-189-49.5c-8.6-1.4-24.2,10.9-81.1,233.5&#10;&#9;&#9;&#9;&#9;c-9.1-5.2-22.4-8.5-37.3-8.5c-27.3,0-49.5,11.1-49.5,24.7c0,13.7,22.2,24.7,49.5,24.7c10.4,0,20.1-1.6,28.1-4.4&#10;&#9;&#9;&#9;&#9;C95.7,531.6,26.9,687.2,0,747.6V792h612V118.6C601.5,120.7,586.8,123.3,568.5,125z" style="fill: rgb(212, 150, 87);"/>
			<path d="M 172.599995 120.900002 A 32.200001 20.200001 0 0 1 140.399994 141.100002 A 32.200001 20.200001 0 0 1 108.199993 120.900002 A 32.200001 20.200001 0 0 1 140.399994 100.700001 A 32.200001 20.200001 0 0 1 172.599995 120.900002 Z" class="st2" style="fill: rgb(212, 150, 87);"/>
			<path d="M 219.100006 57.099998 A 15 7.5 0 0 1 204.100006 64.599998 A 15 7.5 0 0 1 189.100006 57.099998 A 15 7.5 0 0 1 204.100006 49.599998 A 15 7.5 0 0 1 219.100006 57.099998 Z" class="st2" style="fill: rgb(212, 150, 87);"/>
			<path d="M 94.599998 165.899994 A 21 12.7 0 0 1 73.599998 178.599994 A 21 12.7 0 0 1 52.599998 165.899994 A 21 12.7 0 0 1 73.599998 153.199994 A 21 12.7 0 0 1 94.599998 165.899994 Z" class="st2" style="fill: rgb(212, 150, 87);"/>
		</g>
		<path class="st3" d="M13.6,792H612V144c-133.4,0.1-379.9-49.9-379.9-49.9s-17.5,93.5-85.5,275C95.1,506.6,33.7,727.5,13.6,792z" style="fill: rgb(212, 209, 196);"/>
		<g>
			<g>
				<path class="st4" d="M482,509.1c-74.7-11-158.8-26.6-233.3-48c-46.3-13.3-87.8-23.5-123.8-31.3c-3.2,9.4-6.4,18.9-9.6,28.6&#10;&#9;&#9;&#9;&#9;&#9;c36.1,7.7,78.1,18,125.2,31.5c43.7,12.5,90.2,23,136.2,31.8c68.9,13.2,136.6,22.5,191.3,29c15.9,1.9,30.6,3.5,44,4.9v-30.2&#10;&#9;&#9;&#9;&#9;&#9;C576.3,521.7,531.2,516.4,482,509.1z" style="fill: rgb(122, 130, 97);"/>
				<path class="st4" d="M376.7,607.3c68.9,13.2,136.6,22.5,191.3,29c15.9,1.9,30.6,3.5,44,4.9V611c-35.7-3.8-80.8-9.1-130-16.4&#10;&#9;&#9;&#9;&#9;&#9;c-74.7-11-158.8-26.6-233.3-48c-58.1-16.7-108.6-28.4-150.1-36.7c-3,9.6-6.1,19.2-9.1,28.8c41.4,8.2,92.2,19.9,150.9,36.8&#10;&#9;&#9;&#9;&#9;&#9;C284.2,588,330.7,598.5,376.7,607.3z" style="fill: rgb(122, 130, 97);"/>
				<path class="st4" d="M612,782c-35.7-3.8-80.8-9.1-130-16.4c-74.7-11-158.8-26.6-233.3-48c-83.5-24-151.4-37.8-199.5-45.8&#10;&#9;&#9;&#9;&#9;&#9;c-3,10-5.8,19.7-8.6,29c47.2,7.7,115.3,21.4,199.8,45.6c43.7,12.5,90.2,23,136.2,31.8c26.8,5.1,53.5,9.7,79.2,13.7H612V782z" style="fill: rgb(122, 130, 97);"/>
				<path class="st4" d="M219.5,146.5c7,1.6,14.1,3.3,21.3,5c44.2,10.7,91.1,19.2,137.4,26.1c69.4,10.3,137.4,16.7,192.3,20.9&#10;&#9;&#9;&#9;&#9;&#9;c14.9,1.1,28.7,2.1,41.4,2.9v-30.1c-35.6-2.3-80.3-5.7-129-10.8c-75.1-7.9-159.8-19.9-235.1-38.1c-7.1-1.7-14.1-3.4-21-5&#10;&#9;&#9;&#9;&#9;&#9;C225,125.2,222.6,134.9,219.5,146.5z" style="fill: rgb(122, 130, 97);"/>
				<path class="st4" d="M377.5,264.2c69.2,11.7,137,19.6,191.9,24.9c15.3,1.5,29.6,2.8,42.7,3.9v-30.1c-35.6-3-80.5-7.4-129.5-13.6&#10;&#9;&#9;&#9;&#9;&#9;c-74.9-9.5-159.4-23.2-234.3-43c-14.7-3.9-29-7.5-42.7-10.8c-2.7,9-5.6,18.6-8.8,28.7c14.1,3.4,28.7,7.1,43.9,11.1&#10;&#9;&#9;&#9;&#9;&#9;C284.6,246.9,331.3,256.4,377.5,264.2z" style="fill: rgb(122, 130, 97);"/>
				<path class="st4" d="M377.4,349.7c69.2,11.7,137,19.6,191.8,25c15.3,1.5,29.7,2.8,42.7,3.9v-30.1c-35.6-3.1-80.5-7.4-129.5-13.6&#10;&#9;&#9;&#9;&#9;&#9;c-74.9-9.5-159.4-23.3-234.2-43.1c-24-6.4-46.8-11.9-68.1-16.8c-3.1,9.2-6.4,18.7-9.8,28.5c21.9,4.9,45.4,10.7,70.3,17.2&#10;&#9;&#9;&#9;&#9;&#9;C284.6,332.4,331.3,341.9,377.4,349.7z" style="fill: rgb(122, 130, 97);"/>
				<path class="st4" d="M482,423.6c-74.7-11-158.8-26.6-233.3-48c-34.6-9.9-66.4-18.1-95.4-24.9c-2.2,6-4.5,12.1-6.8,18.3&#10;&#9;&#9;&#9;&#9;&#9;c-1.2,3.3-2.5,6.7-3.7,10.1c29.4,6.8,62.1,15.1,97.6,25.3c43.7,12.5,90.2,23,136.2,31.8c68.9,13.2,136.6,22.5,191.3,29&#10;&#9;&#9;&#9;&#9;&#9;c15.9,1.9,30.6,3.5,44,4.9V440C576.3,436.2,531.2,430.9,482,423.6z" style="fill: rgb(122, 130, 97);"/>
				<path class="st4" d="M376.7,692.8c68.9,13.2,136.6,22.5,191.3,29c15.9,1.9,30.6,3.5,44,4.9v-30.2c-35.7-3.8-80.8-9.1-130-16.4&#10;&#9;&#9;&#9;&#9;&#9;c-74.7-11-158.8-26.6-233.3-48C178.5,612,119.2,599,73.6,590.6c-3,9.8-5.9,19.4-8.7,28.9c45.2,8.2,104.6,21.1,175.6,41.5&#10;&#9;&#9;&#9;&#9;&#9;C284.2,673.5,330.7,684,376.7,692.8z" style="fill: rgb(122, 130, 97);"/>
			</g>
			<path class="st4" d="M199.6,786.1c-82.3-12.8-138.7-24.2-174.5-32.2c-4.6,15.6-8.5,28.6-11.5,38.1h224.5&#10;&#9;&#9;&#9;&#9;C225.4,790.1,212.5,788.1,199.6,786.1z" style="fill: rgb(122, 130, 97);"/>
		</g>
		<path class="st5" d="M573.1,261.1c6-15,0-78-9-94.5S533,152.3,533,152.3l-82.9,9.8l-105,7.5c0,0-75,15-82.2,25.4&#10;&#9;&#9;&#9;c-7.2,10.4,29.7,10.6,49.2,13.6s21,30,21,30l70.5,106.5l6,117l-31.5,103.5c0,0-63,63-88.5,109.5c-14,25.5-19.8,76.3-22.3,116.9&#10;&#9;&#9;&#9;h148.8c23.8-55.4,25.3-120.2,28-152.9c3-36,37.5-84,51-124.5c13.5-40.5,72-85.5,90-139.5C603.1,321.1,567.1,276.1,573.1,261.1z" style="opacity: 0.2;"/>
		<path class="st6" d="M0,0v300.2C26.6,260.9,39.2,199.8,43,125C49,7,167,15,345,43c86.6,13.6,156.7-12.5,205.8-43H0z" style="fill: rgb(255, 219, 189);"/>
		<path class="st7" d="M455.7,0H0v222.6c9.1-14.5,15.8-78.3,22-103.6c19.5-79.5,51.5-93,152-99C263.4,14.7,384.3,48.6,455.7,0z" style="fill: rgb(153, 255, 255);"/>
	</g><g transform="matrix(1, 0, 0, 1, 0, 0)">
			<path class="st8" d="M558.9,324.4c-12.4,2.6-14.5-18.1-24.8-24.3c-10.3-6.2-22.2,0-22.2,0c6.2-9.3,15.5-6.7,30-2.1&#10;&#9;&#9;&#9;&#9;c14.5,4.7,16.6-16,16.6-16c-5.2,14-21.2,9.8-35.2,0c-14-9.8-24.3-3.1-27.4,18.6c-1.1,7.4-3.3,12.3-5.9,15.7&#10;&#9;&#9;&#9;&#9;c2.2-5.9,3.2-13.2,2.7-21.7c-1.3-24.8-1.1-26,23.1-25.5c24.2,0.5,21.8-17.4,26.9-27.4c5.1-10.1,13.6-1.1,13.6-1.1&#10;&#9;&#9;&#9;&#9;c-3.6-11.8-13.4-10.1-18.3-8.4c12.6-6.3,12.8-19.6,12.8-19.6c-2.5,12.1-12.4,11.8-12.4,11.8c15.3-5.9,9.8-25.9,9.8-25.9&#10;&#9;&#9;&#9;&#9;c-2.7,9.2-12.1,8.3-22.7-3.5c-10.6-11.8-27-19.2-40.2,4.3c-13.2,23.5-32.8,10.2-46.6-2.1c-13.7-12.3-23.9-14.5-23.9-14.5&#10;&#9;&#9;&#9;&#9;c42.1,6.2,27.2-17.2,24.8-30.6c-2.4-13.4,11.7-13.8,11.7-13.8c-15.3-2.4-14.9,11.7-12.3,28.1c2.6,16.4-15.9,16-44.1,8.5&#10;&#9;&#9;&#9;&#9;c-28.2-7.5-32.1-1.7-39.2,3.7c-13.9-2.6-30.5,16.7-36.1,30.5c-13.8,34-2.9,54.8-11.6,78.1c-14.1,37.7,3.8,72.4,40.2,93&#10;&#9;&#9;&#9;&#9;c36.4,20.6,12.3,38,12.3,38c17.4-7.5,15.9-26.6-12.6-48.5c-28.5-22-19-67.1-19-67.1c-4.8,26.7,9.4,65.3,51.9,80.8&#10;&#9;&#9;&#9;&#9;c56.8,20.7,90.4-19.5,114.2-20.3c23.7-0.8,21.1,20.5,15.7,34.3c-5.3,13.9,7.5,15.5,7.5,15.5c-8.2-4.5-5.4-12.6,2.6-35.3&#10;&#9;&#9;&#9;&#9;c5.6-16-3.5-28.2-21.9-33.5c17.4-8.6,26.7-23.8,31.2-17.5c6.7,9.3,12.4,16.6,22.2,7.8c9.8-8.8,20.2-3.6,20.2-3.6&#10;&#9;&#9;&#9;&#9;S571.3,321.8,558.9,324.4z" style="fill: rgb(89, 36, 0);"/>
			<g>
				<path class="st9" d="M510.6,397.3c-3.9,10.2,2,13.8,5.4,15c-7.9-7.9-2.9-18.3,0.4-34.4c4-19.6-18.6-24.1-51.7-37.2&#10;&#9;&#9;&#9;&#9;&#9;c-33.1-13.1-30.1-30.1-30.1-30.1s17.1,25.1,46.2,10c3.4-1.8,6.5-3.3,9.2-4.6c1.4-3.8,2.3-8.2,2.6-13.1&#10;&#9;&#9;&#9;&#9;&#9;c-6.6,0.1-14.2,0.4-22.8,0.7c-41.7,1.5-47.7-55.7-47.7-55.7c30.9,29,55.8,32,70.5,30.1c1.2-8.6,6.4-9.1,23.2-8.7&#10;&#9;&#9;&#9;&#9;&#9;c24.2,0.5,21.8-17.4,26.9-27.4c3.3-6.6,8.1-5,11-3.2c-7.2-8.1-16.4,0-24.6,10.2c-9.5,12.1-31.6,11.6-25.6,2&#10;&#9;&#9;&#9;&#9;&#9;c6-9.5,22.1-13.1,34.5-18.5c12.6-6.3,12.8-19.6,12.8-19.6c-2.5,12.1-12.4,11.8-12.4,11.8c14.8-5.7,10.1-24.7,9.8-25.9&#10;&#9;&#9;&#9;&#9;&#9;c-0.8,16.1-11.1,22.6-25.6,22.6c-15.1,0-23.6,5.5-36.2,24.6c-12.6,19.1-29.6,11-29.6,11s15.1-3,23.1-23.6&#10;&#9;&#9;&#9;&#9;&#9;c8-20.6,21.1-16.1,21.1-16.1c-10.5-4.5-16.6,2.5-29.1,20.1c-12.6,17.6-33.1,10.5-33.1,10.5l-46.2-21.6c0,0-2,42.5-6,75&#10;&#9;&#9;&#9;&#9;&#9;c-4,32.5,7.4,54.6,7.4,54.6s-9.7-15.4-11-45.9c-1.3-30.5-16.4-48.2-16.4-48.2s1,30.8,0,59.3c-1,28.5,16.1,43.5,16.1,43.5&#10;&#9;&#9;&#9;&#9;&#9;c-19.4-8.4-28.8-37.8-28.8-37.8s-0.3,19.4,26.1,52.2c1.5,1.8,2.7,3.6,3.8,5.3c55.1,18.4,88-20.5,111.3-21.3&#10;&#9;&#9;&#9;&#9;&#9;C518.5,362.1,515.9,383.4,510.6,397.3z" style="fill: rgb(48, 13, 0);"/>
				<path class="st9" d="M572.3,330.3c-4.7-4.1-15.1-4.1-20.2-1.1c-7,4-13.1,6-18.6-11c-4.2-13-14.8-15.5-38.1-15.3&#10;&#9;&#9;&#9;&#9;&#9;c-1.1,5.9-3.1,10.1-5.3,13.1c20.3-9.9,23-7.9,32.3-0.8c4.9,3.8,10,11.8,14,19.4c4.4,4.3,9.2,5.6,15.8-0.3&#10;&#9;&#9;&#9;&#9;&#9;c9.8-8.8,20.2-3.6,20.2-3.6S572.4,330.5,572.3,330.3z" style="fill: rgb(48, 13, 0);"/>
				<path class="st9" d="M346.2,368.3c-20.9-17.5-19.8-47.9-18.3-60.3c0.2-3.4,0.5-6.4,0.9-9.1c2-14.1-1-29.5-1-29.5&#10;&#9;&#9;&#9;&#9;&#9;c1,9.4-1.7,23.4-7.7,43.9c-6,20.4,5,49.9,30.8,65.6c5.7,3.5,9.2,7.5,11.1,11.7c14.6,15.7-1.7,27.5-1.7,27.5&#10;&#9;&#9;&#9;&#9;&#9;c12-5.2,15-15.7,6.5-29C361.2,382.9,353.5,377.6,346.2,368.3z" style="fill: rgb(48, 13, 0);"/>
			</g>
		</g><g transform="matrix(1, 0, 0, 1, 0, 0)">
				<path class="st10" d="M531.4,128.1c-2.8-4.7-23.9-8.5-80.1-4.4c-56.1,4.1-133.7,11.3-136.8,10.7c-3-0.6-16.2-7.2-20.6-9.9&#10;&#9;&#9;&#9;&#9;&#9;c-4.4-2.8-27.5-8-30.5-6.6c-3,1.4-14.3,21.2-15.7,22.3c-1.4,1.1-21.5-4.4-22.3-4.4c-0.8,0-1.9,1.1-1.9,4.4c0,3.3,2.5,5.8,14,9.9&#10;&#9;&#9;&#9;&#9;&#9;c11.6,4.1,28.3,8,28.6,9.1c0.3,1.1-9.4,4.4-9.4,4.4s-5.2-2.2-13.5-5c-8.3-2.8-10.5,4.1-7.7,5c2.8,0.8,12.4,7.7,15.7,8.8&#10;&#9;&#9;&#9;&#9;&#9;c3.3,1.1,28.1-0.6,32.2-1.7c4.1-1.1,24.2-12.9,24.2-12.9s43.3-1.7,104.3,5c60.8,6.6,84.2,1.7,84.2,1.7s-4.1,36.3-12.9,72.6&#10;&#9;&#9;&#9;&#9;&#9;c-8.8,36.3-25,66.9-25,66.9c-12.4,21.7-10.5,41.5-13.5,42.4c-3,0.8-13.3-11.6-17.8-30.3c-4.4-18.7-10.6-38.8-10.6-38.8&#10;&#9;&#9;&#9;&#9;&#9;l-32.2,28.6c0,0,16.2,28.1,18.4,47.6c2.2,19.5-18.7,14.8-18.7,14.8s-13.1-7.5-35.2-11.3c-27.9-4.7-73.5-5.8-116.9-27&#10;&#9;&#9;&#9;&#9;&#9;c0,0,26.5-17.8,44.9-34.7c9.8-9,26-18.4,34.6-24.8c0.3-8.5-0.1-17.3,0.5-27c-17.8,9-49.3,23.5-62.7,31.5&#10;&#9;&#9;&#9;&#9;&#9;c-21.5,12.9-60.7,42.1-66.6,62.3c0,0,15.4,20.7,64.9,35.8c42.2,12.8,96.3,20.8,101,43.4c0,0-15.1,21.2-16.2,36.9&#10;&#9;&#9;&#9;&#9;&#9;c-1.1,15.7,17.3,32.7,17.3,32.7s1.1,42.1-23.7,56.7c-24.8,14.6-47.2,24.2-58.2,35.2c0,0-26.2,19.1-39.5,70.7&#10;&#9;&#9;&#9;&#9;&#9;c-14.5,56.3-5.8,142.8-5.8,142.8h58.2c1.7-17.8,8.7-48.1,13.6-67.4c7.3-28.8,13.4-51.7,13.4-51.7l4.5,0.9&#10;&#9;&#9;&#9;&#9;&#9;c-7.8,36.5-9,41.5-15.6,68.2c-4.3,17.5-9,37.5-11.5,49.9h62.6c0,0,46.4-75.1,52.6-144.6c0,0,1.6-14.7,2-32.3&#10;&#9;&#9;&#9;&#9;&#9;c0.4-20.2,6.4-35,16-46.4c9.5-11.4,29.7-36.9,38.9-73.6c0,0,31.4-21.3,31.4-44.4c0-10.8-8.5-71.7-5.6-77.6c0,0,8.5-34,19.2-65.7&#10;&#9;&#9;&#9;&#9;&#9;c10.6-31.6,22.3-89.5,23.1-95.3C530.8,171.8,534.1,132.8,531.4,128.1z" style="fill: rgb(255, 217, 176);"/>
				<path class="st11" d="M347.8,792h-63.4l0.1-0.6c2.2-11,6.5-29.7,11.5-49.9c6.5-26.5,7.7-31.4,15.5-67.7l-3.5-0.7&#10;&#9;&#9;&#9;&#9;&#9;c-0.9,3.4-6.6,25-13.3,51.2c-2.7,10.5-11.6,46.6-13.6,67.3l0,0.5h-59.1l0-0.5c-0.1-0.9-8.5-87.3,5.9-143&#10;&#9;&#9;&#9;&#9;&#9;c13.2-51.2,39.4-70.8,39.7-71c7.4-7.4,20.1-14.3,34.9-22.2c7.5-4,15.2-8.2,23.4-13c23.3-13.7,23.5-52.8,23.4-56&#10;&#9;&#9;&#9;&#9;&#9;c-1.9-1.8-18.4-17.9-17.3-33c1-14.9,14.7-34.8,16.2-36.9c-3.8-17.1-36.5-25.6-71.2-34.7c-9.8-2.6-20-5.2-29.4-8.1&#10;&#9;&#9;&#9;&#9;&#9;c-39.3-11.9-59.8-28.7-65.2-36l-0.1-0.2l0.1-0.2c3.3-11.3,16.8-24.8,27.6-34.1c13.7-11.8,29.2-22.4,39.2-28.5&#10;&#9;&#9;&#9;&#9;&#9;c8.8-5.3,25.3-13.3,41.1-20.9c8-3.9,15.5-7.5,21.5-10.6l0.8-0.4l-0.1,0.9c-0.4,5.9-0.4,11.4-0.4,16.8c0,3.5,0,6.9-0.1,10.2&#10;&#9;&#9;&#9;&#9;&#9;l0,0.2l-0.2,0.1c-3,2.2-6.9,4.8-11,7.5c-8.1,5.3-17.2,11.4-23.6,17.2c-16.5,15.2-39.8,31.2-44.2,34.2&#10;&#9;&#9;&#9;&#9;&#9;c33.4,16.1,67.5,20.3,94.9,23.6c7.7,0.9,14.9,1.8,21.2,2.9c21.1,3.6,34.2,10.7,35.3,11.3c0.4,0.1,2.4,0.5,4.9,0.5&#10;&#9;&#9;&#9;&#9;&#9;c3.3,0,7.8-0.7,10.5-3.8c2.2-2.5,3.1-6.2,2.5-11c-2.2-19.2-18.2-47.2-18.3-47.4l-0.2-0.4l33.1-29.4l0.2,0.7&#10;&#9;&#9;&#9;&#9;&#9;c0.1,0.2,6.2,20.3,10.6,38.8c4.3,18.3,14,29.9,17,29.9c0.1,0,0.1,0,0.2,0c0.8-0.2,1.3-3.4,1.9-7.2c1.3-7.9,3.3-21,11.3-35&#10;&#9;&#9;&#9;&#9;&#9;c0.2-0.3,16.3-30.9,25-66.7c8-33.2,12.2-66.8,12.8-71.9c-2.4,0.4-11.1,1.7-27.7,1.7c-16.1,0-35-1.2-56-3.4&#10;&#9;&#9;&#9;&#9;&#9;c-41.2-4.5-74.4-5.1-90.6-5.1c-7.9,0-12.6,0.2-13.5,0.2c-1.8,1-20.2,11.8-24.2,12.9c-3.3,0.9-18.7,2-27.1,2&#10;&#9;&#9;&#9;&#9;&#9;c-2.9,0-4.6-0.1-5.4-0.4c-1.7-0.6-5.1-2.7-8.3-4.7c-3-1.8-6.1-3.8-7.3-4.1c-1.1-0.3-1.6-1.3-1.4-2.6c0.3-1.9,2.2-4,5.7-4&#10;&#9;&#9;&#9;&#9;&#9;c1.2,0,2.4,0.2,3.8,0.7c7.3,2.4,12.4,4.5,13.3,4.9c3.7-1.3,7.9-3,8.7-3.8c-1.1-0.6-5.8-2-10.5-3.3c-5.4-1.5-12.2-3.5-17.7-5.4&#10;&#9;&#9;&#9;&#9;&#9;c-10.9-3.9-14.4-6.4-14.4-10.4c0-3.6,1.3-4.9,2.4-4.9c0.3,0,1.1,0.2,4.3,1c5.4,1.3,14.4,3.5,17.1,3.5c0.4,0,0.5-0.1,0.5-0.1&#10;&#9;&#9;&#9;&#9;&#9;c0.4-0.3,2.4-3.5,4.3-6.6c5.1-8.1,9.5-14.9,11.4-15.8c0.4-0.2,1-0.3,1.9-0.3c6.4,0,25.1,4.5,29.1,6.9c4.4,2.8,17.5,9.3,20.5,9.8&#10;&#9;&#9;&#9;&#9;&#9;c0.1,0,0.3,0,0.5,0c4.2,0,26.7-1.9,55.1-4.3c26-2.2,55.4-4.6,81-6.5c15.8-1.2,29.8-1.8,41.4-1.8c22.8,0,36.7,2.3,39.1,6.4&#10;&#9;&#9;&#9;&#9;&#9;c3,5.1-1,47.1-6.3,84c-0.7,5-12.4,63.4-23.2,95.3c-10.6,31.4-19.1,65.3-19.2,65.7l0,0.1c-1.8,3.6,1.1,30.9,3.2,50.8&#10;&#9;&#9;&#9;&#9;&#9;c1.3,12.1,2.4,22.6,2.4,26.5c0,22.3-29,43-31.4,44.7c-9.7,38.7-31.7,65-38.9,73.6c-10.3,12.2-15.5,27.3-15.8,46.1&#10;&#9;&#9;&#9;&#9;&#9;c-0.4,17.4-2,32.2-2,32.3c-6.1,68.7-52.2,144-52.6,144.8L347.8,792z M285.5,791h61.7c2.9-4.7,46.4-77.5,52.3-144.1&#10;&#9;&#9;&#9;&#9;&#9;c0-0.2,1.7-14.9,2-32.3c0.4-19,5.7-34.3,16.1-46.7c7.2-8.6,29.1-34.7,38.8-73.4l0-0.2l0.2-0.1c0.3-0.2,31.2-21.4,31.2-44&#10;&#9;&#9;&#9;&#9;&#9;c0-3.9-1.1-14.3-2.4-26.4c-2.4-22.2-5-47.3-3.2-51.3c0.4-1.5,8.8-34.9,19.2-65.7c10.8-31.9,22.4-90.2,23.1-95.2&#10;&#9;&#9;&#9;&#9;&#9;c6.1-42.5,8.9-79.1,6.4-83.3c-0.8-1.4-6-5.9-38.3-5.9c-11.6,0-25.5,0.6-41.3,1.8c-25.6,1.9-55,4.3-81,6.5&#10;&#9;&#9;&#9;&#9;&#9;c-28.5,2.4-50.9,4.3-55.2,4.3c-0.4,0-0.6,0-0.7,0c-3.3-0.6-16.6-7.4-20.8-10c-3.8-2.4-22.2-6.8-28.5-6.8c-1,0-1.4,0.1-1.5,0.2&#10;&#9;&#9;&#9;&#9;&#9;c-1.8,0.8-7.3,9.6-11,15.4c-2.7,4.2-4.1,6.4-4.6,6.8c-0.2,0.2-0.6,0.3-1.1,0.3c-2.9,0-12-2.2-17.4-3.6c-2-0.5-3.9-1-4.1-1&#10;&#9;&#9;&#9;&#9;&#9;c-0.6,0-1.4,1-1.4,3.9c0,2.9,2.2,5.3,13.7,9.4c5.5,2,12.2,3.9,17.7,5.4c9.6,2.7,11.1,3.3,11.3,4c0.1,0.4,0.4,1.5-9.7,5l-0.2,0.1&#10;&#9;&#9;&#9;&#9;&#9;l-0.2-0.1c-0.1,0-5.3-2.2-13.4-4.9c-1.2-0.4-2.4-0.6-3.4-0.6c-2.9,0-4.5,1.6-4.7,3.1c-0.1,0.6,0.1,1.3,0.7,1.5&#10;&#9;&#9;&#9;&#9;&#9;c1.4,0.4,4.4,2.3,7.6,4.2c3.2,2,6.5,4,8.1,4.6c0.5,0.2,1.7,0.3,5.1,0.3c8.3,0,23.6-1.1,26.8-2c4-1.1,23.9-12.8,24.1-12.9&#10;&#9;&#9;&#9;&#9;&#9;l0.1-0.1l0.1,0c0,0,5-0.2,13.6-0.2c16.2,0,49.5,0.7,90.7,5.1c21,2.3,39.8,3.4,55.9,3.4c19.6,0,28.1-1.8,28.2-1.8l0.7-0.1&#10;&#9;&#9;&#9;&#9;&#9;l-0.1,0.7c0,0.4-4.2,36.8-12.9,72.7c-8.7,36-24.9,66.7-25.1,67c-7.9,13.8-9.9,26.8-11.2,34.6c-0.8,5.1-1.2,7.6-2.6,8&#10;&#9;&#9;&#9;&#9;&#9;c-0.1,0-0.3,0.1-0.4,0.1c-3.8,0-13.7-12.7-17.9-30.7c-3.9-16.5-9.2-34.2-10.4-38l-31.3,27.8c1.9,3.3,16.2,29.2,18.3,47.5&#10;&#9;&#9;&#9;&#9;&#9;c0.6,5.1-0.4,9.1-2.8,11.8c-3,3.4-7.8,4.1-11.3,4.1c-2.9,0-5.1-0.5-5.2-0.5l-0.1-0.1c-0.1-0.1-13.3-7.5-35.1-11.2&#10;&#9;&#9;&#9;&#9;&#9;c-6.2-1.1-13.5-1.9-21.1-2.9c-27.7-3.4-62.1-7.6-96-24.1l-0.8-0.4l0.7-0.5c0.3-0.2,26.7-18,44.8-34.6c6.4-5.9,15.6-12,23.7-17.3&#10;&#9;&#9;&#9;&#9;&#9;c4-2.7,7.9-5.2,10.8-7.3c0.1-3.3,0.1-6.5,0.1-9.9c0-5.1,0-10.4,0.3-16c-5.9,3-13.1,6.5-20.8,10.2c-15.1,7.3-32.3,15.6-41.1,20.9&#10;&#9;&#9;&#9;&#9;&#9;c-22.6,13.6-60.4,42.3-66.3,61.8c5.5,7.2,25.9,23.7,64.5,35.4c9.4,2.9,19.6,5.5,29.4,8.1c35.1,9.2,68.2,17.9,71.9,35.7l0,0.2&#10;&#9;&#9;&#9;&#9;&#9;l-0.1,0.2c-0.2,0.2-15.1,21.3-16.1,36.6c-1.1,15.3,17,32.2,17.2,32.3l0.2,0.1l0,0.2c0,0.1,0.2,10.7-2.6,23&#10;&#9;&#9;&#9;&#9;&#9;c-2.6,11.4-8.4,26.5-21.4,34.1c-8.2,4.8-15.9,9-23.4,13c-14.7,7.9-27.4,14.8-34.7,22.1c-0.3,0.2-26.3,19.6-39.4,70.5&#10;&#9;&#9;&#9;&#9;&#9;c-13.7,53.5-6.5,135.4-5.9,142.2H280c2.1-20.8,10.9-56.5,13.6-67c7.2-28.5,13.4-51.5,13.4-51.7l0.1-0.5l5.5,1.1l-0.1,0.5&#10;&#9;&#9;&#9;&#9;&#9;c-7.9,36.8-9,41.6-15.6,68.3C292,761.6,287.8,779.9,285.5,791z" style="fill: rgb(209, 122, 64);"/>
			</g><path class="st12" d="M231.7,330c0,0,26.5-17.8,44.9-34.7c9.8-9,26-18.4,34.6-24.8c0.3-8.5-0.1-17.3,0.5-27&#10;&#9;&#9;&#9;c-5.6,2.8-12,6.1-18.6,9.5c20.4-3.4,16,12.9-4.1,27.9c-25.6,19.2-70.7,44.7-71.3,47.9C217.2,332.1,225.7,330,231.7,330z" style="fill: rgb(245, 186, 145);" transform="matrix(1, 0, 0, 1, 0, 0)"/><path class="st12" d="M354.3,567.1c0,0,1.4,12.5-6.4,20.3C340.1,595.3,331.9,585.3,354.3,567.1z" style="fill: rgb(245, 186, 145);" transform="matrix(1, 0, 0, 1, 0, 0)"/><path class="st12" d="M488.3,450.3c0-10.8-8.5-71.7-5.6-77.6c0,0,8.5-34,19.2-65.7c10.6-31.6,22.3-89.5,23.1-95.3&#10;&#9;&#9;&#9;c0.4-3.1,0.9-6.1,1.3-9.2c-17.1,82.5-51.7,156.3-53.8,158.9c-2.1,2.7,1.1-13.4,1.1-13.4s-4.8,9.6-6.4,16.6&#10;&#9;&#9;&#9;c-1.6,6.9-2.7,25.1,6.9,45.4c9.6,20.3,13.4,59.3-19.8,66.2c-33.1,6.9-53.4-10.7-53.4-20.3c0-9.6,8.5-23,8.5-23&#10;&#9;&#9;&#9;c-18.2,6.4-17.1,24-23.5,9.1c-6.4-15-1.1-54-1.1-54s-27.2,19.8-33.7,13.4c-6.4-6.4-17.1-9.6-50.2-18.2&#10;&#9;&#9;&#9;c-27.6-7.1-71.2-18.7-84.9-22.4c8.5,4.1,18.8,8.3,31.3,12.1c42.2,12.8,96.3,20.8,101,43.4c0,0-15.1,21.2-16.2,36.9&#10;&#9;&#9;&#9;c-1.1,15.7,17.3,32.7,17.3,32.7s0.1,4.2-0.5,10.4c7.8-6.5,18.2-5.6,23.7-3.1c6.9,3.2,7.5,16,6.9,19.2c-0.5,3.2,4.8-6.9,16-17.1&#10;&#9;&#9;&#9;c11.2-10.2,50.2-1.6,47.5,11.2c-2.7,12.8-2.7,36.9-32.6,54c-16.6,9.5-18.7,15.5-19.8,36.9c-1.1,21.4-31,23.5-65.7,14.4&#10;&#9;&#9;&#9;c-27.6-7.2-49.5-26.6-57.3-34.3c-0.1,0.1-0.2,0.1-0.2,0.2c0,0-1.6,1.2-4.2,3.7l-0.3,1.5c0,0,4.3,13.4,9.6,32.1&#10;&#9;&#9;&#9;c5.3,18.7,10.7,56.1,4.8,92.4c-4.4,27.4-8,66.4-9.4,83.9h12.3c1.7-17.8,8.7-48.1,13.6-67.4c7.3-28.8,13.4-51.7,13.4-51.7l4.5,0.9&#10;&#9;&#9;&#9;c-7.8,36.5-9,41.5-15.6,68.2c-2.9,11.8-6,24.9-8.5,35.9c8.8-29.6,23.8-74.2,36.7-85.3c19.8-17.1,58.2-5.3,47.5,28.3&#10;&#9;&#9;&#9;c-7.3,23.1-21.9,53.9-30.4,71h5.8c0,0,46.4-75.1,52.6-144.6c0,0,1.6-14.7,2-32.3c0.4-20.2,6.4-35,16-46.4&#10;&#9;&#9;&#9;c9.5-11.4,29.7-36.9,38.9-73.6C456.9,494.7,488.3,473.4,488.3,450.3z" style="fill: rgb(245, 186, 145);" transform="matrix(1, 0, 0, 1, 0, 0)"/><path class="st12" d="M444.7,346.3c-3,0.8-13.3-11.6-17.8-30.3c-4.4-18.7-10.6-38.8-10.6-38.8l-32.2,28.6c0,0,9.4,16.3,14.9,32.8&#10;&#9;&#9;&#9;c4.7,3.3,10.2,5.9,15.3,5.3c11.8-1.6,10.2-20.3,10.2-20.3s9.1,11,9.4,20.1c0.4,9.1-10.1,23.7-16.9,24.4&#10;&#9;&#9;&#9;c-5.7,0.6-11.6-7.8-14.4-13.7c0.8,9.6-4.3,13-9.3,14c2,0.7,4.4,1.3,7.3,1.5c9.1,0.5,10.5,1.4,12.3,4.8c1.8,3.4,5.5,5.2,6.8-0.2&#10;&#9;&#9;&#9;c1.2-5.3,6.4-5.2,10.9-7.1c4.5-2,15.7-15.3,17.1-21.4c0.5-2.2,0.3-5.8-0.3-9.5C446.4,342.2,446,345.9,444.7,346.3z" style="fill: rgb(245, 186, 145);" transform="matrix(1, 0, 0, 1, 0, 0)"/><g transform="matrix(1, 0, 0, 1, 0, 0)">
				<path class="st11" d="M419.8,376.6l-1,0c0-0.1,0.1-6.3,6.3-7.5c0.1,0,12.3-4.2,21.3-20.3l0.9,0.5c-9.2,16.5-21.8,20.7-21.9,20.8&#10;&#9;&#9;&#9;&#9;&#9;C419.9,371.1,419.8,376.3,419.8,376.6z" style="fill: rgb(209, 122, 64);"/>
			</g><path class="st11" d="M413.3,376.8c0,0-1.4-3.2-4.6-4.9c-1.6-0.9-4.6-1.2-7.5-1.6c-3-0.4-6-0.7-7.9-1.7l0.4-0.9&#10;&#9;&#9;&#9;&#9;&#9;c1.7,0.9,4.7,1.2,7.6,1.6c3.1,0.4,6.1,0.7,7.8,1.7c3.4,1.9,4.9,5.2,5,5.4L413.3,376.8z" style="fill: rgb(209, 122, 64);" transform="matrix(1, 0, 0, 1, 0, 0)"/><path class="st11" d="M406.2,481c-0.2-0.3-15.7-27.4,5.2-50.5l0.7,0.7c-20.4,22.6-5.2,49-5.1,49.3L406.2,481z" style="fill: rgb(209, 122, 64);" transform="matrix(1, 0, 0, 1, 0, 0)"/><g transform="matrix(1, 0, 0, 1, 0, 0)">
				<path class="st10" d="M432.7,249l1.7,27.3c0,0,9.3-1.5,11.4-14.5C445.8,261.8,445.4,243.3,432.7,249z" style="fill: rgb(255, 217, 176);"/>
				<path class="st11" d="M434,276.9l-1.8-28.2l0.3-0.1c1.7-0.8,3.2-1.1,4.6-1.1c8.7,0,9.2,13.8,9.2,14.4&#10;&#9;&#9;&#9;&#9;&#9;c-1.1,6.9-4.2,10.6-6.6,12.5c-2.7,2.1-5,2.5-5.1,2.5L434,276.9z M433.2,249.3l1.7,26.4c0.8-0.2,2.5-0.8,4.2-2.2&#10;&#9;&#9;&#9;&#9;&#9;c2.3-1.8,5.2-5.2,6.2-11.7c0,0-0.4-13.3-8.2-13.3C436,248.4,434.7,248.7,433.2,249.3z" style="fill: rgb(209, 122, 64);"/>
			</g><path class="st10" d="M341.7,287.9l19.2,19.5c0,0-4.5,7.4-15.5,0.4C345.5,307.8,329,293.6,341.7,287.9z" style="fill: rgb(255, 217, 176);" transform="matrix(1, 0, 0, 1, 0, 0)"/><path class="st11" d="M354.2,311.3c-2.7,0-5.7-1.1-9-3.1c-0.5-0.4-9.7-8.4-8.7-15c0.4-2.4,2-4.3,5-5.7l0.3-0.1l19.8,20l-0.2,0.3&#10;&#9;&#9;&#9;&#9;&#9;C361.3,307.8,359.1,311.3,354.2,311.3z M341.6,288.5c-2.4,1.2-3.8,2.8-4.1,4.8c-0.9,6.1,8.2,14,8.3,14.1c3,1.9,5.9,2.9,8.4,2.9&#10;&#9;&#9;&#9;&#9;&#9;c3.6,0,5.5-2,6.1-2.8L341.6,288.5z" style="fill: rgb(209, 122, 64);" transform="matrix(1, 0, 0, 1, 0, 0)"/><path class="st10" d="M434.7,246.3c-6.9-1.8-11.2-7.4-18.4-15.9c-11.9-14.1-29.7-10.2-29.7-10.2c-17.1-4.3-29.4,11.8-37.5,36.2&#10;&#9;&#9;&#9;&#9;&#9;c-4.7,14-8.5,16.7-13.1,19.4c1.4,3.9,2.5,6.2,2.5,6.2s17.2,42.6,67.9,52c0,0,8.5,1.3,14.7-10.4c0,0,23.1-26.1,13.9-75.4&#10;&#9;&#9;&#9;&#9;&#9;C434.8,247.5,434.7,246.9,434.7,246.3z" style="fill: rgb(255, 217, 176);" transform="matrix(1, 0, 0, 1, 0, 0)"/><path class="st11" d="M407,334.4L407,334.4c-0.5,0-0.8,0-0.8,0c-50.4-9.3-68.1-51.8-68.3-52.3l0,0c0,0-1.1-2.4-2.5-6.2l-0.1-0.4&#10;&#9;&#9;&#9;&#9;&#9;l0.4-0.2c4.2-2.5,8.1-4.9,12.9-19.1c8.1-24.3,19.4-37.2,32.6-37.2c1.8,0,3.6,0.2,5.4,0.7c0.5-0.1,2.7-0.5,5.8-0.5&#10;&#9;&#9;&#9;&#9;&#9;c6.9,0,16.8,1.9,24.3,10.9l1.3,1.6c6.3,7.6,10.5,12.6,16.8,14.2l0.3,0.1l0,0.3c0.1,0.6,0.1,1.2,0.2,1.9&#10;&#9;&#9;&#9;&#9;&#9;c4.8,25.5,0.7,44.7-3.5,56.4c-4.4,12.1-9.9,18.7-10.4,19.3C416.1,333.7,409.1,334.4,407,334.4z M406.4,333.4c0,0,0.2,0,0.7,0&#10;&#9;&#9;&#9;&#9;&#9;c1.9,0,8.5-0.7,13.5-10.2l0.1-0.1c0.2-0.3,22.8-26.5,13.8-75c0-0.5-0.1-1-0.1-1.5c-6.4-1.8-10.7-6.8-17-14.4l-1.3-1.6&#10;&#9;&#9;&#9;&#9;&#9;c-7.3-8.7-16.9-10.5-23.6-10.5c-3.4,0-5.6,0.5-5.7,0.5l-0.1,0l-0.1,0c-1.8-0.5-3.6-0.7-5.3-0.7c-16.1,0-26.1,19.9-31.6,36.5&#10;&#9;&#9;&#9;&#9;&#9;c-4.7,14.2-8.7,16.9-12.9,19.5c1.3,3.6,2.3,5.8,2.3,5.8C339,282.2,356.6,324.3,406.4,333.4L406.4,333.4z" style="fill: rgb(209, 122, 64);" transform="matrix(1, 0, 0, 1, 0, 0)"/><defs>
				<filter id="Adobe_OpacityMaskFilter" filterUnits="userSpaceOnUse" x="417.4" y="276.3" width="19.6" height="23.8">
					<feFlood style="flood-color:white;flood-opacity:1" result="back"/>
					<feBlend in="SourceGraphic" in2="back" mode="normal"/>
				</filter>
			</defs><mask maskUnits="userSpaceOnUse" x="417.4" y="276.3" width="19.6" height="23.8" id="SVGID_1_">
				<g class="st13" style="filter: url('#Adobe_OpacityMaskFilter');">
					<defs>
						<filter id="Adobe_OpacityMaskFilter_1_" filterUnits="userSpaceOnUse" x="417.4" y="276.3" width="19.6" height="23.8">
							<feFlood style="flood-color:white;flood-opacity:1" result="back"/>
							<feBlend in="SourceGraphic" in2="back" mode="normal"/>
						</filter>
					</defs>
					<mask maskUnits="userSpaceOnUse" x="417.4" y="276.3" width="19.6" height="23.8" id="SVGID_1_">
						<g class="st14" style="filter: url('#Adobe_OpacityMaskFilter_1_');">
						</g>
					</mask>
					
						<radialGradient id="SVGID_2_" cx="263.5378" cy="386.1262" r="8.763" gradientTransform="matrix(1.2022 -0.5424 0.5424 1.2022 -97.4077 -32.6228)" gradientUnits="userSpaceOnUse">
						<stop offset="0" style="stop-color:#FFFFFF"/>
						<stop offset="8.543080e-02" style="stop-color:#F5F5F5"/>
						<stop offset="0.2324" style="stop-color:#D9D9D9"/>
						<stop offset="0.4231" style="stop-color:#ACACAC"/>
						<stop offset="0.6502" style="stop-color:#6E6E6E"/>
						<stop offset="0.9053" style="stop-color:#1F1F1F"/>
						<stop offset="1" style="stop-color:#000000"/>
					</radialGradient>
					<path class="st15" d="M437.1,278.8l-0.3-0.7c-3.4-2-7.3-2.4-11.5-0.5c-6.5,2.9-9.5,10.1-6.9,15.9c2.3,5.1,8.1,7.6,13.8,6.3&#10;&#9;&#9;&#9;&#9;&#9;&#9;C434.7,292.2,437.1,278.8,437.1,278.8z" style="mask: url('#SVGID_1_'); fill: url('#SVGID_2_');"/>
				</g>
			</mask><radialGradient id="SVGID_3_" cx="263.5378" cy="386.1262" r="8.763" gradientTransform="matrix(1.2022 -0.5424 0.5424 1.2022 -97.4077 -32.6228)" gradientUnits="userSpaceOnUse">
				<stop offset="0" style="stop-color:#FFB19C"/>
				<stop offset="0.5565" style="stop-color:#FFBB9C"/>
				<stop offset="1" style="stop-color:#FFC79C"/>
			</radialGradient><path class="st16" d="M437.1,278.8l-0.3-0.7c-3.4-2-7.3-2.4-11.5-0.5c-6.5,2.9-9.5,10.1-6.9,15.9c2.3,5.1,8.1,7.6,13.8,6.3&#10;&#9;&#9;&#9;&#9;C434.7,292.2,437.1,278.8,437.1,278.8z" style="fill: url('#SVGID_3_');" transform="matrix(1, 0, 0, 1, 0, 0)"/><defs>
				<filter id="Adobe_OpacityMaskFilter_2_" filterUnits="userSpaceOnUse" x="357.4" y="299.1" width="24.9" height="21.9">
					<feFlood style="flood-color:white;flood-opacity:1" result="back"/>
					<feBlend in="SourceGraphic" in2="back" mode="normal"/>
				</filter>
			</defs><mask maskUnits="userSpaceOnUse" x="357.4" y="299.1" width="24.9" height="21.9" id="SVGID_4_">
				<g class="st17" style="filter: url('#Adobe_OpacityMaskFilter_2_');">
					<defs>
						<filter id="Adobe_OpacityMaskFilter_3_" filterUnits="userSpaceOnUse" x="357.4" y="299.1" width="24.9" height="21.9">
							<feFlood style="flood-color:white;flood-opacity:1" result="back"/>
							<feBlend in="SourceGraphic" in2="back" mode="normal"/>
						</filter>
					</defs>
					<mask maskUnits="userSpaceOnUse" x="357.4" y="299.1" width="24.9" height="21.9" id="SVGID_4_">
						<g class="st18" style="filter: url('#Adobe_OpacityMaskFilter_3_');">
						</g>
					</mask>
					
						<radialGradient id="SVGID_5_" cx="229.1086" cy="425.4673" r="8.8396" gradientTransform="matrix(1.2327 -0.469 0.469 1.2327 -111.2503 -106.5334)" gradientUnits="userSpaceOnUse">
						<stop offset="0" style="stop-color:#FFFFFF"/>
						<stop offset="8.543080e-02" style="stop-color:#F5F5F5"/>
						<stop offset="0.2324" style="stop-color:#D9D9D9"/>
						<stop offset="0.4231" style="stop-color:#ACACAC"/>
						<stop offset="0.6502" style="stop-color:#6E6E6E"/>
						<stop offset="0.9053" style="stop-color:#1F1F1F"/>
						<stop offset="1" style="stop-color:#000000"/>
					</radialGradient>
					<path class="st19" d="M365.4,300c-4,1.5-6.8,4.7-8,8.3c2.4,2.1,10.5,9.1,18.6,12.7l0,0c5.1-3.1,7.6-9.1,5.6-14.5&#10;&#9;&#9;&#9;&#9;&#9;&#9;C379.3,300.4,372,297.5,365.4,300z" style="mask: url('#SVGID_4_'); fill: url('#SVGID_5_');"/>
				</g>
			</mask><radialGradient id="SVGID_6_" cx="229.1086" cy="425.4673" r="8.8396" gradientTransform="matrix(1.2327 -0.469 0.469 1.2327 -111.2503 -106.5334)" gradientUnits="userSpaceOnUse">
				<stop offset="0" style="stop-color:#FFB19C"/>
				<stop offset="0.5565" style="stop-color:#FFBB9C"/>
				<stop offset="1" style="stop-color:#FFC79C"/>
			</radialGradient><path class="st20" d="M365.4,300c-4,1.5-6.8,4.7-8,8.3c2.4,2.1,10.5,9.1,18.6,12.7l0,0c5.1-3.1,7.6-9.1,5.6-14.5&#10;&#9;&#9;&#9;&#9;C379.3,300.4,372,297.5,365.4,300z" style="fill: url('#SVGID_6_');" transform="matrix(1, 0, 0, 1, 0, 0)"/><path class="st21" d="M395.1,267.6c0,0,7-34,32.2-23c0,0-22.9-11.7-28.7,23.8C398.6,268.4,394.8,271.6,395.1,267.6z" style="fill: rgb(189, 81, 0);" transform="matrix(1, 0, 0, 1, 0, 0)"/><path class="st22" d="M401.9,271.6c0,0,4.2-22.8,15.2-22.6C417.1,249,409.1,249.4,401.9,271.6z" style="fill: rgb(255, 179, 149);" transform="matrix(1, 0, 0, 1, 0, 0)"/><path class="st0" d="M403.4,277c0,0,5.3-26.4,26.3-16.6C429.7,260.5,428,282.8,403.4,277z" style="fill: rgb(255, 255, 255);" transform="matrix(1, 0, 0, 1, 0, 0)"/><path class="st23" d="M403.4,277c0,0-2-24.5,19.9-24.2c0,0,4,0.1,7.6,2.7c0,0,2.4,2,4.1,1.1c0,0,0.5,3.9,0.2,4.8L432,261&#10;&#9;&#9;&#9;&#9;&#9;&#9;l-6.7-3.2l-8.3,0.7C416.9,258.6,408.7,259.6,403.4,277z" style="fill: rgb(255, 255, 240);" transform="matrix(1, 0, 0, 1, 0, 0)"/><path class="st24" d="M415.4,278c0,0,13.3-0.1,19.4-12.5l0.3-4l-3.4,1.3C431.8,262.7,428.7,274.6,415.4,278z" style="fill: rgb(255, 242, 255);" transform="matrix(1, 0, 0, 1, 0, 0)"/><path class="st25" d="M409.9,263.9c0,0-3.2,14.3,10.6,12.2c0,0,11.5-3.8,9.1-14.9C429.5,261.1,418.6,251.3,409.9,263.9z" style="fill: rgb(0, 144, 78);" transform="matrix(1, 0, 0, 1, 0, 0)"/><path class="st26" d="M425.1,259.1c0,0-9-6-15.2,4.8c0,0-0.6,3.9,0,6.6c0,0,1.5-3.6,4.4-5.9c-0.4,1-0.5,2.2,0,3.3&#10;&#9;&#9;&#9;&#9;&#9;&#9;c0.9,2.3,3.5,3.5,5.8,2.6c2.3-0.9,3.5-3.5,2.6-5.8c-0.2-0.6-0.6-1.2-1.1-1.6c2.2,0.6,4.7,2.2,7.6,5.2l2.1-5.3L425.1,259.1z" style="fill: rgb(0, 68, 0);" transform="matrix(1, 0, 0, 1, 0, 0)"/><path class="st27" d="M413.1,269.3c0,0,0.6,4.8,7.6,2.6l0.7,2.1c0,0-8.6,3.6-9.8-4L413.1,269.3z" style="fill: rgb(124, 255, 124);" transform="matrix(1, 0, 0, 1, 0, 0)"/><path d="M 421.1000061035156 271.6000061035156 L 421.8999938964844 273.70001220703125 L 422.8999938964844 273.1000061035156 L 421.5 271.3999938964844 Z" class="st27" style="fill: rgb(124, 255, 124);" transform="matrix(1, 0, 0, 1, 0, 0)"/><path class="st27" d="M424,265.3c0,0,0.6,3.6-1.4,5.1l1.6,1.2C424.3,271.6,427.9,266.7,424,265.3z" style="fill: rgb(124, 255, 124);" transform="matrix(1, 0, 0, 1, 0, 0)"/><path d="M 425.3 265.299988 A 2.8 2.8 0 0 1 422.5 268.099988 A 2.8 2.8 0 0 1 419.7 265.299988 A 2.8 2.8 0 0 1 422.5 262.499988 A 2.8 2.8 0 0 1 425.3 265.299988 Z" class="st0" style="fill: rgb(255, 255, 255);" transform="matrix(1, 0, 0, 1, 0, 0)"/><path class="st28" d="M403.4,277c0,0,0.8-22.7,19.4-20.7c0,0,3.3,1,7.5,2.5c0,0,11.7,4.4,15.4-3.6c0,0-2.2,7.8-13.7,9.3&#10;&#9;&#9;&#9;&#9;&#9;&#9;c0,0-2.1,11.7-16.6,13.5c0,0,11.8-2.9,13.5-14.8C428.9,263.2,413.5,249,403.4,277z" style="fill: rgb(53, 21, 0);" transform="matrix(1, 0, 0, 1, 0, 0)"/><path class="st21" d="M373.7,272.9c0,0-9.9-10.8-27.7-5.3c0,0,11.4-4.3,24.1,7.5C370.1,275.2,374.9,275.5,373.7,272.9z" style="fill: rgb(189, 81, 0);" transform="matrix(1, 0, 0, 1, 0, 0)"/><path class="st22" d="M351.3,276.7c0,0,8.6-7.7,21.5,5.1C372.8,281.7,360.4,271.8,351.3,276.7z" style="fill: rgb(255, 179, 149);" transform="matrix(1, 0, 0, 1, 0, 0)"/><path class="st22" d="M392.6,297.6c0,0,4.8,4.4,9.7,2.5C402.3,300.1,393.5,308.1,392.6,297.6z" style="fill: rgb(255, 179, 149);" transform="matrix(1, 0, 0, 1, 0, 0)"/><path class="st0" d="M375.7,287.7c0,0-19.3-16.4-28.3,2.5C347.4,290.2,359.1,306,375.7,287.7z" style="fill: rgb(255, 255, 255);" transform="matrix(1, 0, 0, 1, 0, 0)"/><path class="st23" d="M375.7,287.7c0,0-14.9-21-29.8-4.5l-1.4,3.5c0,0-1.7,3.8-3.5,2.1c0,0,1.8,2.3,2.6,3.8l1.9-0.1l1.9-3.3&#10;&#9;&#9;&#9;&#9;&#9;&#9;l3.4-4.5C350.8,284.7,359.1,273.2,375.7,287.7z" style="fill: rgb(255, 255, 240);" transform="matrix(1, 0, 0, 1, 0, 0)"/><path class="st25" d="M356.6,280.6c0,0-6.8,9.2,3.7,14.2c0,0,6.5,2.5,10.6-3.6c0,0,2.5-2.5,1.2-6.5&#10;&#9;&#9;&#9;&#9;&#9;&#9;C372,284.8,361.7,277.6,356.6,280.6z" style="fill: rgb(0, 144, 78);" transform="matrix(1, 0, 0, 1, 0, 0)"/><path class="st26" d="M372,284.8c0,0-10.9-6-15.9-3.8c0,0-1.4,2.5-2,5.5c0,0,2.3-1.2,5.6-1.4c-0.7,1.1-0.9,2.4-0.4,3.6&#10;&#9;&#9;&#9;&#9;&#9;&#9;c0.8,2.1,3.3,3.2,5.5,2.4c1.8-0.7,2.9-2.5,2.8-4.3c1.4,0.8,2.8,1.9,4.1,3.4C371.7,290.1,372.8,287,372,284.8z" style="fill: rgb(0, 68, 0);" transform="matrix(1, 0, 0, 1, 0, 0)"/><path class="st27" d="M355.4,287.7l2.1-0.7c0,0,0.9,5.4,5.4,5.1l-0.2,1.8C362.7,294,357.7,294.6,355.4,287.7z" style="fill: rgb(124, 255, 124);" transform="matrix(1, 0, 0, 1, 0, 0)"/><path d="M 363.8999938964844 292.5 L 363.8999938964844 294.1000061035156 L 365.1000061035156 293.8999938964844 L 364.6000061035156 292.3999938964844 Z" class="st27" style="fill: rgb(124, 255, 124);" transform="matrix(1, 0, 0, 1, 0, 0)"/><path class="st27" d="M366.5,291.3l1.3,1.1c0,0,2.3-1.9,2.2-3l-1.7-1.3C368.3,288,369.4,289.7,366.5,291.3z" style="fill: rgb(124, 255, 124);" transform="matrix(1, 0, 0, 1, 0, 0)"/><path class="st0" d="M368.3,285.9c0.6,1.5-0.2,3.1-1.7,3.7c-1.5,0.6-3.2-0.1-3.7-1.6c-0.6-1.5,0.2-3.1,1.7-3.7&#10;&#9;&#9;&#9;&#9;&#9;&#9;C366.1,283.8,367.8,284.5,368.3,285.9z" style="fill: rgb(255, 255, 255);" transform="matrix(1, 0, 0, 1, 0, 0)"/><path class="st24" d="M344.8,293.5l2.4-1.3c0,0,4.4,6.1,17.2,3.6C364.3,295.8,351.3,302,344.8,293.5z" style="fill: rgb(255, 242, 255);" transform="matrix(1, 0, 0, 1, 0, 0)"/><path class="st28" d="M375.6,287.4c0,0-14.1-14.6-25.1-6.3c0,0-3,2.5-3.9,5.7c0,0-2.7,8-10,6.6c0,0,5.6,3.4,11-0.6&#10;&#9;&#9;&#9;&#9;&#9;&#9;c0,0,4.8,5.7,15.3,3.5c0,0-10.3,0.7-14-6C349,290.3,352.1,272.6,375.6,287.4z" style="fill: rgb(53, 21, 0);" transform="matrix(1, 0, 0, 1, 0, 0)"/><path class="st29" d="M421.6,304.5c0,0-3.4,2.3-6.6,1.7c-5-0.9-5.8-0.2-7.2,0.5c-1.4,0.7-2.7,2.7-3.9,2.6&#10;&#9;&#9;&#9;&#9;&#9;&#9;c-1.2-0.2-2.8-0.6-4.7,0.1c-1.9,0.7-2.7,3-6.9,5.7c-2.6,1.7-5.2,2.2-5.5,2.2c-0.3,0,9.2,8.7,21.6,4.3&#10;&#9;&#9;&#9;&#9;&#9;&#9;C419.7,317.7,421.1,305.8,421.6,304.5z" style="fill: rgb(255, 124, 164);" transform="matrix(1, 0, 0, 1, 0, 0)"/><path class="st30" d="M416.7,311.8c-0.7-0.2-1.5,0.9-3.5,2.4c-2,1.5-6.1,3.1-6.1,3.1c-0.7,1.5,1.5,1.6,4.9,0&#10;&#9;&#9;&#9;&#9;&#9;&#9;&#9;C415.5,315.7,417.4,312,416.7,311.8z" style="fill: rgb(255, 184, 210);" transform="matrix(1, 0, 0, 1, 0, 0)"/><path class="st0" d="M404,318.5c-0.5,0.2-0.8,0.7-0.6,1.1c0.2,0.4,0.7,0.5,1.2,0.3c0.5-0.2,0.8-0.7,0.6-1.1&#10;&#9;&#9;&#9;&#9;&#9;&#9;&#9;C405,318.4,404.5,318.3,404,318.5z" style="fill: rgb(255, 255, 255);" transform="matrix(1, 0, 0, 1, 0, 0)"/><path class="st31" d="M404.4,315c-4.6,1.5-8.7,2-8.8,2.2c0,0,5.2-2.1,5.4-3.4c0,0,5.8,0.1,8.3-3c0,0,1,0.2,2.5,0&#10;&#9;&#9;&#9;&#9;&#9;&#9;c1.2-0.1,3.1-0.6,3-0.5C414.7,310.4,409.3,313.5,404.4,315z" style="fill: rgb(151, 0, 91);" transform="matrix(1, 0, 0, 1, 0, 0)"/><path class="st31" d="M412.8,311.3c0,0,8.6-3.7,9.3-6.4c0.6-2.7-0.2-3.1-0.9-2.8C420.6,302.5,421.3,306.6,412.8,311.3z" style="fill: rgb(151, 0, 91);" transform="matrix(1, 0, 0, 1, 0, 0)"/><path class="st31" d="M398.1,316.3c0,0-8.7,3.4-11,2c-2.3-1.5-2-2.4-1.3-2.6C386.5,315.5,388.9,319,398.1,316.3z" style="fill: rgb(151, 0, 91);" transform="matrix(1, 0, 0, 1, 0, 0)"/><g transform="matrix(1, 0, 0, 1, 0, 0)">
					<path class="st10" d="M339.6,280.8" style="fill: rgb(255, 217, 176);"/>
				</g><g transform="matrix(1, 0, 0, 1, 0, 0)">
					<path class="st0" d="M422.5,208.7c-2.4-6.7-11.7-10.4-29.6-5.8c-14.6,3.7-18.5,10.9-19.4,13.4c-2.5,0.8-7.8,2.6-10.1,4.2&#10;&#9;&#9;&#9;&#9;&#9;&#9;c-2.3-1.8-9.2-5.6-22-1.7c-16.2,4.9-21.3,12.6-19.3,19.5c1.9,6.9,10.1,15.4,14.3,16.8c4.2,1.5,19.8-1.1,25.4-6.9&#10;&#9;&#9;&#9;&#9;&#9;&#9;c4.8-5,6.8-13.2,4.1-22.7c1.9-1.1,5.7-3,9.1-2.7c3.4,8.5,9.8,13.8,16.9,15.3c8.6,1.8,24.6-4.4,27.6-7.8&#10;&#9;&#9;&#9;&#9;&#9;&#9;C422.4,226.8,424.9,215.4,422.5,208.7z" style="fill: rgb(255, 255, 255);"/>
					<path class="st32" d="M339.8,256c-1.5,0-2.7-0.1-3.5-0.4c-4.2-1.5-12.6-10-14.6-17.2c-2.3-8.2,5.1-15.7,19.7-20.1&#10;&#9;&#9;&#9;&#9;&#9;&#9;c3.7-1.1,7.2-1.7,10.5-1.7c6.1,0,9.9,2,11.7,3.3c2.4-1.5,6.9-3.1,9.7-4c1.2-3,5.5-9.8,19.7-13.5c5.3-1.4,10.1-2,14.2-2&#10;&#9;&#9;&#9;&#9;&#9;&#9;c8.4,0,14.1,2.9,16,8.2c2.5,7.1-0.2,18.6-3.1,22.1c-2.7,3.1-15.5,8.3-24.5,8.3l0,0c-1.3,0-2.5-0.1-3.6-0.3&#10;&#9;&#9;&#9;&#9;&#9;&#9;c-7.6-1.6-13.8-7.2-17.2-15.3c-3-0.1-6.3,1.4-8.2,2.4c2.4,9,0.8,17.5-4.3,22.8C357.5,253.4,346.1,256,339.8,256z M351.8,217.6&#10;&#9;&#9;&#9;&#9;&#9;&#9;c-3.2,0-6.6,0.6-10.2,1.6c-14,4.2-21.1,11.3-19,18.9c1.9,6.8,10.1,15.1,14,16.5c0.7,0.3,1.8,0.4,3.2,0.4c6,0,17.2-2.5,21.7-7.1&#10;&#9;&#9;&#9;&#9;&#9;&#9;c5-5.1,6.4-13.4,4-22.2l-0.1-0.4l0.3-0.2c1.9-1.1,5.8-3,9.4-2.8l0.3,0l0.1,0.3c3.2,8,9.2,13.4,16.6,15c1,0.2,2.1,0.3,3.4,0.3&#10;&#9;&#9;&#9;&#9;&#9;&#9;c8.6,0,21.2-5,23.7-8c2.8-3.2,5.3-14.4,3-21.1c-1.7-4.8-7-7.5-15-7.5c-4,0-8.7,0.7-13.9,2c-14.5,3.7-18.3,11-19.1,13.1&#10;&#9;&#9;&#9;&#9;&#9;&#9;l-0.1,0.2l-0.2,0.1c-2.2,0.7-7.7,2.6-9.9,4.1l-0.3,0.2l-0.3-0.2C361.6,219.6,357.9,217.6,351.8,217.6z" style="fill: rgb(255, 159, 129);"/>
				</g><path class="st33" d="M377.9,217.6c0,0,1.5-7.9,16-11.6c14.5-3.7,22.1-0.7,24,4.7c1.9,5.5-0.1,14.7-2.5,17.5&#10;&#9;&#9;&#9;&#9;&#9;&#9;c-2.4,2.8-15.4,7.8-22.4,6.4C386.1,233.1,380,227.2,377.9,217.6z" style="fill: rgb(33, 21, 31);" transform="matrix(1, 0, 0, 1, 0, 0)"/><path class="st34" d="M393.9,206c-14.5,3.7-16,11.6-16,11.6c1.8,8.5,6.8,14.1,12.7,16.3c0.3-12.6,6.5-23,11.5-29.4&#10;&#9;&#9;&#9;&#9;&#9;&#9;C399.8,204.7,397,205.2,393.9,206z" style="fill: rgb(112, 84, 94);" transform="matrix(1, 0, 0, 1, 0, 0)"/><path d="M 408.799994 207.899994 A 3.4 1.5 0 0 1 405.399994 209.399994 A 3.4 1.5 0 0 1 401.999994 207.899994 A 3.4 1.5 0 0 1 405.399994 206.399994 A 3.4 1.5 0 0 1 408.799994 207.899994 Z" transform="matrix(1, 0.009002496488392353, -0.009002496488392353, 1, 1.8884000778198242, -3.6414999961853027)" class="st35" style="fill: rgb(165, 137, 149);"/><g transform="matrix(1, 0, 0, 1, 0, 0)">
						<path class="st33" d="M361.1,223.9c0,0-5.5-6-18.7-2c-13.1,4-17.3,10.2-15.7,15.8c1.6,5.6,8.2,12.5,11.6,13.7&#10;&#9;&#9;&#9;&#9;&#9;&#9;&#9;c3.4,1.2,16.1-0.9,20.6-5.6C363.5,241.1,364.9,233.1,361.1,223.9z" style="fill: rgb(33, 21, 31);"/>
					</g><path class="st34" d="M354.9,220.9c-3-0.6-7.1-0.7-12.5,0.9c-13.1,4-17.3,10.2-15.7,15.8c1.6,5.6,8.2,12.5,11.6,13.7&#10;&#9;&#9;&#9;&#9;&#9;&#9;c0,0,0,0,0.1,0C339.7,237.4,347.8,227.2,354.9,220.9z" style="fill: rgb(112, 84, 94);" transform="matrix(1, 0, 0, 1, 0, 0)"/><path d="M 358.4 225.399994 A 3.4 1.5 0 0 1 355 226.899994 A 3.4 1.5 0 0 1 351.6 225.399994 A 3.4 1.5 0 0 1 355 223.899994 A 3.4 1.5 0 0 1 358.4 225.399994 Z" transform="matrix(1, 0.009071270935237408, -0.009071270935237408, 1, 2.059499979019165, -3.210700035095215)" class="st35" style="fill: rgb(165, 137, 149);"/><path class="st36" d="M446.6,341.3l-2.6,4.4c0,0,6.4,39.1-1.8,64.9c-8.3,25.9-29,43.7-30.1,66.8l-11.4,1.1&#10;&#9;&#9;&#9;&#9;c0,0-28.3-22.4-18.7-64.6c5.6-24.7,11-47,11-47l-5.5,1.1c0,0-16.3,32.7-31.2,43.7c-14.9,11-43.5,48.4-6.9,74.3&#10;&#9;&#9;&#9;&#9;c0,0,18.4,3.3,38.8,0c20.4-3.3,62.4,1.3,68.6,8.6c0,0,30.5-14.1,31-39.4C488.5,429.9,456,401.3,446.6,341.3z" style="fill: rgb(255, 116, 159);" transform="matrix(1, 0, 0, 1, 0, 0)"/><path class="st37" d="M456.8,495.3l-0.2-0.3c-3.8-4.5-26-9.5-51.8-9.5c-6.3,0-12,0.4-16.4,1.1c-6,1-12.5,1.5-19.2,1.5&#10;&#9;&#9;&#9;&#9;c-11.4,0-19.7-1.5-19.8-1.5l-0.2-0.1c-11.9-8.4-17.9-18.6-18.1-30.5c-0.2-19,14.8-37.1,24.9-44.6c14.6-10.8,30.9-43.2,31-43.5&#10;&#9;&#9;&#9;&#9;l0.1-0.2l6.5-1.3l-0.2,0.8c-0.1,0.2-5.5,22.5-11,47c-9,39.8,16.2,62.1,18.4,63.9l10.7-1c0.8-13.1,7.7-24.5,15-36.5&#10;&#9;&#9;&#9;&#9;c5.7-9.3,11.5-18.9,15-30c8.1-25.5,1.9-64.3,1.8-64.7l0-0.2l3.4-5.8l0.2,1.4c5.2,33.4,17.6,57,27.5,75.9&#10;&#9;&#9;&#9;&#9;c7.9,15,14.1,26.8,13.8,38.1c-0.6,25.3-31,39.7-31.3,39.9L456.8,495.3z M404.8,484.5c25.9,0,47.6,4.9,52.3,9.6&#10;&#9;&#9;&#9;&#9;c3.3-1.6,29.9-15.5,30.4-38.8c0.2-11.1-5.9-22.8-13.7-37.6c-9.8-18.7-22-42-27.3-74.8l-1.8,3c0.5,2.9,6,40.2-1.9,65&#10;&#9;&#9;&#9;&#9;c-3.6,11.2-9.5,20.9-15.1,30.2c-7.4,12.1-14.3,23.5-14.9,36.5l0,0.4l-12,1.2l-0.2-0.1c-0.3-0.2-28.4-23.1-18.9-65.1&#10;&#9;&#9;&#9;&#9;c4.9-21.9,9.8-42.1,10.8-46.2l-4.5,0.9c-1.5,2.9-17.1,33.1-31.2,43.6c-9.6,7.1-24.7,25.3-24.5,43.8c0.1,11.5,6,21.5,17.5,29.7&#10;&#9;&#9;&#9;&#9;c1,0.2,8.9,1.4,19.5,1.4c6.6,0,13.1-0.5,19-1.5C392.6,484.9,398.4,484.5,404.8,484.5z" style="fill: rgb(204, 13, 61);" transform="matrix(1, 0, 0, 1, 0, 0)"/><path class="st38" d="M470,416.5c12,31,3,56.5-29,45c-8.3-3-14.3-7.6-18.7-12.7c-5.4,9.3-9.7,18.4-10.2,28.6l-11.4,1.1&#10;&#9;&#9;&#9;c0,0-12.4-9.9-18-28.8c-11.1,11.9-28,14.4-37.8,4.3c-5.9-6.1-7.2-13.9-7-20.7c-8.8,15.9-11.3,36.6,11.5,52.7c0,0,18.4,3.3,38.8,0&#10;&#9;&#9;&#9;c20.4-3.3,62.4,1.3,68.6,8.6c0,0,30.5-14.1,31-39.4c0.3-15-11-31.2-22.1-54.4C466.5,405.8,467.9,411,470,416.5z" style="fill: rgb(224, 84, 138);" transform="matrix(1, 0, 0, 1, 0, 0)"/><path class="st0" d="M446.6,341.3l-2.6,4.4c0,0,6.4,39.1-1.8,64.9c-8.3,25.9-29,43.7-30.1,66.8l-11.4,1.1&#10;&#9;&#9;&#9;&#9;c0,0-28.3-22.4-18.7-64.6c5.6-24.7,11-47,11-47l-5.5,1.1c0,0-16.3,32.7-31.2,43.7c-3.9,2.9-8.7,7.6-13.1,13.4&#10;&#9;&#9;&#9;&#9;c4.7-3.6,9.8-7.6,14.7-11.3c14.3-11,27-31.7,27-31.7s-14,41.7-8,63.7s17,32.7,17,32.7s-32.9,8.2-50.6,2.6c1.8,1.7,3.8,3.3,6.1,5&#10;&#9;&#9;&#9;&#9;c0,0,18.4,3.3,38.8,0c20.4-3.3,62.4,1.3,68.6,8.6c0,0,2.7-1.2,6.4-3.6c-3.6-1.7-12.9-5.8-23.7-8.9c-14-4-22-4.7-22-4.7&#10;&#9;&#9;&#9;&#9;s3.7-23,17.3-39.3c13.7-16.3,17.7-45.7,14.7-67.7c0,0,8.3,24.8,20.1,38.3C460.8,391.4,451.1,370,446.6,341.3z" style="fill: rgb(255, 255, 255);" transform="matrix(1, 0, 0, 1, 0, 0)"/><path class="st37" d="M456.8,495.3l-0.2-0.3c-3.8-4.5-26-9.5-51.8-9.5c-6.3,0-12,0.4-16.4,1.1c-6,1-12.5,1.5-19.2,1.5&#10;&#9;&#9;&#9;&#9;c-11.4,0-19.7-1.5-19.8-1.5l-0.2-0.1c-2.2-1.6-4.3-3.3-6.2-5l0.5-0.8c4,1.3,9.3,1.9,15.5,1.9c14.4,0,30.2-3.5,34-4.3&#10;&#9;&#9;&#9;&#9;c-2.4-2.6-11.4-13.3-16.5-32.2c-3.1-11.5-0.8-28.3,1.7-40.3c1.8-8.5,3.9-16,5.2-20.1c-4.1,6.2-14.2,20.3-25.1,28.7&#10;&#9;&#9;&#9;&#9;c-4.9,3.7-10,7.7-14.7,11.3l-0.7-0.7c4-5.3,8.8-10.3,13.2-13.5c14.6-10.8,30.9-43.2,31-43.5l0.1-0.2l6.5-1.3l-0.2,0.8&#10;&#9;&#9;&#9;&#9;c-0.1,0.2-5.5,22.5-11,47c-9,39.8,16.2,62.1,18.4,63.9l10.7-1c0.8-13.1,7.7-24.5,15-36.5c5.7-9.3,11.5-18.9,15-30&#10;&#9;&#9;&#9;&#9;c8.1-25.5,1.9-64.3,1.8-64.7l0-0.2l3.4-5.8l0.2,1.4c4.4,28.3,14.1,49.9,23,67.4l-0.8,0.6c-8.8-10.2-15.8-27-18.7-34.5&#10;&#9;&#9;&#9;&#9;c1.9,20.6-2,48-15.3,63.9c-12.3,14.7-16.5,35.1-17.1,38.6c2,0.2,9.7,1.2,21.6,4.6c10.9,3.1,20.2,7.3,23.8,8.9l0.8,0.4l-0.8,0.5&#10;&#9;&#9;&#9;&#9;c-3.8,2.4-6.5,3.7-6.5,3.7L456.8,495.3z M404.8,484.5c25.9,0,47.6,4.9,52.3,9.6c0.7-0.4,2.7-1.4,5.3-3c-4-1.8-12.7-5.6-22.8-8.5&#10;&#9;&#9;&#9;&#9;c-13.8-3.9-21.8-4.6-21.9-4.6l-0.5,0l0.1-0.5c0-0.2,3.8-23.3,17.4-39.6c14-16.8,17.4-46.6,14.6-67.3l1-0.2&#10;&#9;&#9;&#9;&#9;c0.1,0.2,7,20.5,16.9,34.3c-8.1-16.4-16.5-36.4-20.7-61.8l-1.8,3c0.5,2.9,6,40.2-1.9,65c-3.6,11.2-9.5,20.9-15.1,30.2&#10;&#9;&#9;&#9;&#9;c-7.4,12.1-14.3,23.5-14.9,36.5l0,0.4l-12,1.2l-0.2-0.1c-0.3-0.2-28.4-23.1-18.9-65.1c4.9-21.9,9.8-42.1,10.8-46.2l-4.5,0.9&#10;&#9;&#9;&#9;&#9;c-1.5,2.9-17.1,33.1-31.2,43.6c-3.4,2.5-7.1,6.1-10.4,10.1c3.8-2.9,7.7-5.9,11.5-8.8c14.1-10.8,26.8-31.3,26.9-31.5l0.9,0.4&#10;&#9;&#9;&#9;&#9;c-0.1,0.4-13.9,41.8-8,63.4c5.9,21.6,16.8,32.3,16.9,32.4l0.6,0.6l-0.9,0.2c-0.2,0-18.6,4.6-35.1,4.6c-5.3,0-9.9-0.5-13.7-1.4&#10;&#9;&#9;&#9;&#9;c1.4,1.2,2.8,2.3,4.4,3.4c1,0.2,8.9,1.4,19.5,1.4c6.6,0,13.1-0.5,19-1.5C392.6,484.9,398.4,484.5,404.8,484.5z" style="fill: rgb(204, 13, 61);" transform="matrix(1, 0, 0, 1, 0, 0)"/><path class="st36" d="M266.9,577.4l-8.4,7.3c6.2,10.6,2.6,6.4,16.5,44.9c13.9,38.5,34,55.6,52.1,49.2&#10;&#9;&#9;&#9;&#9;c49.5-17.6,73.4-23.5,73.4-23.5l0.4-8.4C291.4,646.6,266.9,577.4,266.9,577.4z" style="fill: rgb(255, 116, 159);" transform="matrix(1, 0, 0, 1, 0, 0)"/><path class="st37" d="M319.5,680.7L319.5,680.7c-16.9,0-33.3-18.5-45-50.8c-6.2-17.2-9-26-10.6-31.2c-2-6.5-2.4-7.8-5.9-13.7&#10;&#9;&#9;&#9;&#9;l-0.2-0.4l9.3-8.1l0.2,0.7c0.1,0.2,6.4,17.4,25.9,34.5c18,15.7,51.3,34.5,107.6,34.7l0.5,0l-0.4,9.3l-0.4,0.1&#10;&#9;&#9;&#9;&#9;c-0.2,0.1-24.4,6.1-73.3,23.5C324.7,680.2,322.1,680.7,319.5,680.7z M259.1,584.9c3.3,5.6,3.7,7.1,5.8,13.5&#10;&#9;&#9;&#9;&#9;c1.6,5.2,4.4,14,10.6,31.2c11.5,31.9,27.6,50.2,44.1,50.2c2.5,0,5-0.4,7.4-1.3c45.7-16.3,69.9-22.6,73.1-23.4l0.3-7.5&#10;&#9;&#9;&#9;&#9;c-31.2-0.2-75.1-6.4-107.8-35c-17.5-15.3-24.5-30.8-25.8-34.2L259.1,584.9z" style="fill: rgb(204, 13, 61);" transform="matrix(1, 0, 0, 1, 0, 0)"/><path class="st38" d="M400.8,646.9c-12.7,0-24.2-1-34.7-2.7c-11,15.7-28.4,29-46.4,26.3c-15.8-2.4-29.3-14.8-38.9-26.7&#10;&#9;&#9;&#9;c13.4,28.5,30.6,40.6,46.3,35c49.5-17.6,73.4-23.5,73.4-23.5L400.8,646.9z" style="fill: rgb(224, 84, 138);" transform="matrix(1, 0, 0, 1, 0, 0)"/><path class="st0" d="M269.4,575.4l-3.3,2.4c0,0,43.2,50.5,135.6,55.3v-4C401.6,629.1,319.2,626.5,269.4,575.4z" style="fill: rgb(255, 255, 255);" transform="matrix(1, 0, 0, 1, 0, 0)"/><path class="st37" d="M402.1,633.7l-0.5,0c-47.8-2.5-82.2-17.4-102.7-29.5c-22.2-13.1-33.2-25.8-33.3-26l-0.4-0.4l4.1-3l0.3,0.3&#10;&#9;&#9;&#9;&#9;c49.2,50.3,131.1,53.5,131.9,53.5l0.5,0V633.7z M266.8,577.9c2.1,2.3,12.9,13.7,32.7,25.4c20.3,12,54.3,26.8,101.7,29.3v-3&#10;&#9;&#9;&#9;&#9;c-6.9-0.3-84.3-5.2-131.8-53.5L266.8,577.9z" style="fill: rgb(204, 13, 61);" transform="matrix(1, 0, 0, 1, 0, 0)"/><path class="st11" d="M342.7,590.9l-0.1-1c8.3-0.9,10-13.9,10.1-14.1l1,0.1C353.6,576.5,351.9,589.9,342.7,590.9z" style="fill: rgb(209, 122, 64);" transform="matrix(1, 0, 0, 1, 0, 0)"/><path class="st12" d="M244.3,145.1c1.8,2.6,0.5,5.6-0.4,7.1c8.9,2.8,18.5,5.2,21.4,6.4c3.7-1.3,8.4-3.7,11.3-7.2&#10;&#9;&#9;&#9;c3.9-4.8,11.4-4.1,12.1-4.3c0.7-0.2-1.2-2.8-5.7-7.5c-4.5-4.6-2.1-8.5,1.4-11.4c1.8-1.4,1.6-4.3,1.1-6.8c-8.5-2.3-20-4.5-22-3.6&#10;&#9;&#9;&#9;c-3,1.4-14.3,21.2-15.7,22.3c-0.7,0.5-5.6-0.5-10.7-1.6C240,140.9,243.1,143.5,244.3,145.1z" style="fill: rgb(245, 186, 145);" transform="matrix(1, 0, 0, 1, 0, 0)"/><path class="st10" d="M232.4,129.6c0,0,11.9,8.5,16.8,9.3c4.9,0.8,12,2.1,15,2.9c2.9,0.8,2.1-7.6-4.4-9.9&#10;&#9;&#9;&#9;&#9;c-6.5-2.3-8.4-3.1-10.6-4.5c-2.1-1.5-6.5-5.1-9.5-5.7C236.8,121.1,232.3,123.6,232.4,129.6z" style="fill: rgb(255, 217, 176);" transform="matrix(1, 0, 0, 1, 0, 0)"/><path class="st11" d="M264.6,142.5L264.6,142.5c-0.2,0-0.3,0-0.5-0.1c-2.9-0.8-9.8-2.1-14.9-2.9c-5-0.8-16.5-9.1-17-9.4l-0.2-0.1&#10;&#9;&#9;&#9;&#9;l0-0.2c-0.1-3.3,1.2-5.3,2.3-6.5c1.3-1.3,2.9-2,4.6-2c0.4,0,0.7,0,1.1,0.1c2.4,0.6,5.7,3,8.1,4.7c0.6,0.4,1.1,0.8,1.5,1.1&#10;&#9;&#9;&#9;&#9;c2.1,1.4,3.9,2.2,10.4,4.5c4.8,1.7,6.8,6.5,6.3,9.1C266.1,141.8,265.5,142.5,264.6,142.5z M232.9,129.4c1.6,1.1,12,8.4,16.4,9.1&#10;&#9;&#9;&#9;&#9;c5.1,0.8,12.1,2.2,15,2.9c0.6,0.2,0.9-0.4,0.9-0.9c0.3-2.1-1.2-6.5-5.7-8c-6.6-2.3-8.5-3.1-10.7-4.6c-0.4-0.3-1-0.7-1.6-1.1&#10;&#9;&#9;&#9;&#9;c-2.2-1.6-5.5-4-7.7-4.5c-1.5-0.3-3.4,0.3-4.7,1.7C234,124.8,232.9,126.6,232.9,129.4z" style="fill: rgb(209, 122, 64);" transform="matrix(1, 0, 0, 1, 0, 0)"/><path class="st10" d="M245,121.7c0,0,10.9,8.9,15.5,9.8c4.6,0.9,11.2,2.4,13.9,3.2c2.7,0.9,2.1-7.7-3.9-10.1&#10;&#9;&#9;&#9;&#9;c-6.1-2.4-7.8-3.3-9.8-4.8c-2-1.5-6-5.3-8.8-6C249.3,113.1,245,115.6,245,121.7z" style="fill: rgb(255, 217, 176);" transform="matrix(1, 0, 0, 1, 0, 0)"/><path class="st11" d="M274.9,135.3C274.9,135.3,274.9,135.3,274.9,135.3c-0.2,0-0.3,0-0.5-0.1c-2.7-0.8-9.2-2.3-13.9-3.2&#10;&#9;&#9;&#9;&#9;c-4.7-0.9-15.3-9.5-15.8-9.9l-0.2-0.1l0-0.2c0-3.5,1.3-5.6,2.4-6.7c1.5-1.5,3.5-2.1,5.2-1.7c2.3,0.6,5.3,3.1,7.5,4.9&#10;&#9;&#9;&#9;&#9;c0.5,0.4,1,0.8,1.4,1.1c1.9,1.5,3.6,2.3,9.6,4.7c4.7,1.9,6.2,7.1,5.7,9.5C276.3,134.7,275.7,135.3,274.9,135.3z M245.5,121.5&#10;&#9;&#9;&#9;&#9;c1.5,1.2,11,8.7,15.1,9.5c4.7,0.9,11.3,2.4,14,3.2c0.1,0,0.2,0,0.2,0h0c0.4,0,0.6-0.6,0.6-0.9c0.4-2-1-6.7-5.1-8.3&#10;&#9;&#9;&#9;&#9;c-6.1-2.4-7.9-3.3-9.9-4.9c-0.4-0.3-0.9-0.7-1.4-1.2c-2-1.7-5.1-4.2-7.1-4.7c-1.3-0.4-3,0.2-4.2,1.4&#10;&#9;&#9;&#9;&#9;C246.7,116.7,245.6,118.5,245.5,121.5z" style="fill: rgb(209, 122, 64);" transform="matrix(1, 0, 0, 1, 0, 0)"/><path class="st10" d="M263.4,112c0,0-5.3,3.2-4.3,6.1c1.1,2.9,6.4,4.5,9.5,6.1c3.1,1.6,12.8,4.7,15.5,2.8c2.7-1.9-7.1-8.8-8.9-10&#10;&#9;&#9;&#9;&#9;C273.3,115.9,266.7,111.6,263.4,112z" style="fill: rgb(255, 217, 176);" transform="matrix(1, 0, 0, 1, 0, 0)"/><path class="st11" d="M281.5,128.2C281.5,128.2,281.5,128.2,281.5,128.2c-4.2,0-10.8-2.2-13.1-3.4c-0.7-0.4-1.6-0.7-2.5-1.1&#10;&#9;&#9;&#9;&#9;c-3-1.3-6.4-2.8-7.3-5.3c-1.2-3.3,4.3-6.6,4.5-6.7l0.2-0.1c3.4-0.4,9.9,3.7,11.9,5.1l0.1,0.1c0.1,0.1,9.6,6.3,9.6,9.5&#10;&#9;&#9;&#9;&#9;c0,0.5-0.2,1-0.7,1.3C283.7,128,282.8,128.2,281.5,128.2z M263.6,112.5c-1.4,0.9-4.7,3.4-4,5.5c0.7,2,3.9,3.5,6.7,4.7&#10;&#9;&#9;&#9;&#9;c0.9,0.4,1.8,0.8,2.5,1.2c2.2,1.1,8.6,3.3,12.6,3.3h0c1.1,0,1.9-0.2,2.4-0.5c0.2-0.1,0.3-0.3,0.2-0.5c0-2-6.5-7-9.2-8.7l-0.1-0.1&#10;&#9;&#9;&#9;&#9;C272.8,116.2,266.7,112.2,263.6,112.5z" style="fill: rgb(209, 122, 64);" transform="matrix(1, 0, 0, 1, 0, 0)"/><path class="st11" d="M266.3,159.6l-0.3-0.9c0.1,0,6-2.1,10.1-7.6c2.2-2.9,6-4.6,10.3-4.6c0,0,0,0,0,0c3,0,5.6,0.9,6.7,2.3&#10;&#9;&#9;&#9;&#9;l-0.8,0.6c-0.8-1.1-3.2-1.9-5.9-1.9c0,0,0,0,0,0c-4,0-7.6,1.6-9.5,4.2C272.6,157.4,266.5,159.6,266.3,159.6z" style="fill: rgb(209, 122, 64);" transform="matrix(1, 0, 0, 1, 0, 0)"/><path class="st39" d="M279.7,590.4c0.3-1.4,0.8-2.8,1.4-4.2c-4.1-3.3-8.1-6.9-11.8-10.8l-3.3,2.4&#10;&#9;&#9;&#9;&#9;C266,577.8,270.5,583.1,279.7,590.4z" style="fill: rgb(222, 201, 226);" transform="matrix(1, 0, 0, 1, 0, 0)"/><path class="st39" d="M377.3,630.7c7.7,1.1,15.8,2,24.4,2.4v-4c0,0-8.2-0.3-21-2.2C379.6,628.2,378.5,629.5,377.3,630.7z" style="fill: rgb(222, 201, 226);" transform="matrix(1, 0, 0, 1, 0, 0)"/><path class="st39" d="M420.3,452.4c-4.4,8.1-7.7,16.1-8.1,25l-11.4,1.1c0,0-13.9-11-18.9-32.2c-1.2,1-2.5,1.8-4,2.6&#10;&#9;&#9;&#9;&#9;c6.1,19.9,16.1,29.5,16.1,29.5s-32.9,8.2-50.6,2.6c1.8,1.7,3.8,3.3,6.1,5c0,0,18.4,3.3,38.8,0c20.4-3.3,62.4,1.3,68.6,8.6&#10;&#9;&#9;&#9;&#9;c0,0,2.7-1.2,6.4-3.6c-3.6-1.7-12.9-5.8-23.7-8.9c-14-4-22-4.7-22-4.7s1.6-10.2,6.8-21.9C422.8,454.6,421.4,453.5,420.3,452.4z" style="fill: rgb(222, 201, 226);" transform="matrix(1, 0, 0, 1, 0, 0)"/><path class="st39" d="M384.3,390.5c1.2-0.9,2.4-1.3,3.5-1.4c3.1-13,5.3-22.1,5.3-22.1l-5.5,1.1c0,0-7.5,15-16.9,28&#10;&#9;&#9;&#9;&#9;c1.8-0.3,3.7-0.7,5.5-1.4c5.4-7,8.8-12.6,8.8-12.6s-1.3,3.9-2.9,9.8C382.8,391.5,383.6,391.1,384.3,390.5z" style="fill: rgb(222, 201, 226);" transform="matrix(1, 0, 0, 1, 0, 0)"/><path class="st39" d="M455.7,381.2c0.5,0.1,1.1,0.1,1.6,0.1c-4.4-11.6-8.3-24.7-10.6-39.9l-2.6,4.4c0,0,2.7,16.6,2.3,35.3&#10;&#9;&#9;&#9;&#9;c1.3-0.1,2.7-0.2,4.1-0.2c-0.1-3.6-0.4-7-0.9-10.3c0,0,1.5,4.4,4.1,10.5C454.4,381,455,381.1,455.7,381.2z" style="fill: rgb(222, 201, 226);" transform="matrix(1, 0, 0, 1, 0, 0)"/><g transform="matrix(1, 0, 0, 1, 0, 0)">
			<g>
				<path d="M 540.9000244140625 59.5 L 535.7999877929688 59.5 L 531.4000244140625 46.20000076293945 L 535.9000244140625 46.20000076293945 L 538.4000244140625 55 L 538.4000244140625 55 L 540.9000244140625 46.20000076293945 L 545.2999877929688 46.20000076293945 Z" class="st6" style="fill: rgb(255, 219, 189);"/>
				<path class="st6" d="M547.7,53.9c0.1,1.8,1.1,3,3,3c1,0,2.1-0.5,2.5-1.5h4.1c-0.8,3.1-3.6,4.4-6.6,4.4c-4.3,0-7.3-2.6-7.3-7.1&#10;&#9;&#9;&#9;&#9;&#9;c0-4.1,3.3-7,7.2-7c4.8,0,7.1,3.6,6.9,8.1H547.7z" style="fill: rgb(255, 219, 189);"/>
				<path class="st6" d="M566.8,51.1c0-1.1-1-1.9-2.1-1.9c-2.4,0-2.8,2.1-2.8,3.9c0,1.7,0.7,3.5,2.6,3.5c1.5,0,2.3-0.9,2.5-2.3h4.2&#10;&#9;&#9;&#9;&#9;&#9;c-0.4,3.6-3.2,5.6-6.7,5.6c-4,0-7-2.7-7-6.8c0-4.2,2.7-7.2,7-7.2c3.3,0,6.2,1.7,6.6,5.3H566.8z" style="fill: rgb(255, 219, 189);"/>
				<path class="st6" d="M579.4,49h-2.7v6c0,1.1,0.6,1.3,1.6,1.3c0.4,0,0.7-0.1,1.1-0.1v3.2c-0.8,0-1.6,0.1-2.4,0.1&#10;&#9;&#9;&#9;&#9;&#9;c-3.7,0-4.7-1.1-4.7-4.7V49h-2.2v-2.8h2.2v-4h4.4v4h2.7V49z" style="fill: rgb(255, 219, 189);"/>
				<path class="st6" d="M585.4,45.8c-4.1,0-7,3-7,7c0,4,2.9,7,7,7c4.1,0,7-3,7-7C592.4,48.8,589.5,45.8,585.4,45.8z" style="fill: rgb(255, 219, 189);"/>
				<path class="st6" d="M592.1,46.2h4.2v2.3h0c0.6-1.7,2.1-2.6,4-2.6c0.3,0,0.7,0,1,0.1v4c-0.6-0.2-1.1-0.3-1.7-0.3&#10;&#9;&#9;&#9;&#9;&#9;c-2.1,0-3.3,1.5-3.3,3.1v6.6h-4.4V46.2z" style="fill: rgb(255, 219, 189);"/>
			</g>
			<g>
				<path class="st6" d="M547.7,24.3h5.4v3h0.1c0.8-2.2,2.7-3.3,5.2-3.3c0.4,0,0.9,0,1.3,0.1v5.1c-0.7-0.2-1.4-0.3-2.1-0.3&#10;&#9;&#9;&#9;&#9;&#9;c-2.8,0-4.2,1.9-4.2,4.1v8.5h-5.6V24.3z" style="fill: rgb(255, 219, 189);"/>
				<path class="st6" d="M563.3,34.2c0.1,2.3,1.5,3.9,3.8,3.9c1.4,0,2.7-0.6,3.2-1.9h5.3c-1,4-4.7,5.7-8.5,5.7&#10;&#9;&#9;&#9;&#9;&#9;c-5.6,0-9.4-3.4-9.4-9.1c0-5.2,4.2-9,9.2-9c6.1,0,9.2,4.6,8.9,10.4H563.3z" style="fill: rgb(255, 219, 189);"/>
				<path class="st6" d="M581,34.2c0.1,2.3,1.4,3.9,3.8,3.9c1.4,0,2.7-0.6,3.2-1.9h5.3c-1,4-4.7,5.7-8.5,5.7c-5.6,0-9.4-3.4-9.4-9.1&#10;&#9;&#9;&#9;&#9;&#9;c0-5.2,4.2-9,9.2-9c6.1,0,9.2,4.6,8.9,10.4H581z" style="fill: rgb(255, 219, 189);"/>
				<path class="st6" d="M546.7,21.8c0.5,0,1,0,1.5,0.1v-4c-0.9,0-1.8-0.1-2.7-0.1c-4.8,0-6.5,1.5-6.5,6.4h-2.7v3.6h2.7v13.5h5.6&#10;&#9;&#9;&#9;&#9;&#9;V27.9h3.4v-3.6h-3.4v-0.8C544.6,22,545.4,21.8,546.7,21.8z" style="fill: rgb(255, 219, 189);"/>
			</g>
			<g>
				<path class="st6" d="M551,66.6c0-1.1-1-1.9-2.1-1.9c-2.4,0-2.8,2.1-2.8,3.9c0,1.7,0.7,3.5,2.6,3.5c1.5,0,2.3-0.9,2.5-2.3h4.2&#10;&#9;&#9;&#9;&#9;&#9;c-0.4,3.6-3.2,5.6-6.7,5.6c-4,0-7-2.7-7-6.8c0-4.2,2.7-7.3,7-7.3c3.3,0,6.3,1.8,6.6,5.3H551z" style="fill: rgb(255, 219, 189);"/>
				<path class="st6" d="M562.3,61.5c-4.1,0-7,3-7,7c0,4,2.9,7,7,7c4.1,0,7-3,7-7C569.3,64.5,566.4,61.5,562.3,61.5z" style="fill: rgb(255, 219, 189);"/>
				<path class="st6" d="M539.5,71.4c-1.1,0-1.9,0.8-1.9,1.9c0,1.1,0.8,1.9,1.9,1.9c1.1,0,1.9-0.8,1.9-1.9&#10;&#9;&#9;&#9;&#9;&#9;C541.4,72.2,540.6,71.4,539.5,71.4z" style="fill: rgb(255, 219, 189);"/>
				<path class="st6" d="M569.6,62.3h4.1v1.8h0c0.8-1.3,2.2-2.2,3.7-2.2c1.6,0,3.1,0.5,3.8,2.1c1-1.4,2.3-2.1,4.1-2.1&#10;&#9;&#9;&#9;&#9;&#9;c4.1,0,4.6,3.1,4.6,5.6v7.8h-4.3v-7.6c0-1.4-0.7-2.2-1.8-2.2c-1.8,0-2,1.4-2,3.5v6.4h-4.3v-7.4c0-1.5-0.5-2.5-1.6-2.5&#10;&#9;&#9;&#9;&#9;&#9;c-1.5,0-2.2,0.9-2.2,3.5v6.3h-4.3V62.3z" style="fill: rgb(255, 219, 189);"/>
			</g>
		</g>
</svg>